<?xml version="1.0" encoding="UTF-8"?>
<svg width="24px" height="24px" viewBox="0 0 24 24" version="1.1" xmlns="http://www.w3.org/2000/svg">
    <g stroke="none" stroke-width="1" fill="none" fill-rule="evenodd">
        <path d="M20.64,12.2045c0,-0.6381 -0.0573,-1.2518 -0.1636,-1.8409H12v3.4814h4.8436c-0.2086,1.125 -0.8427,2.0782 -1.7959,2.7164v2.2581h2.9087c1.7018,-1.5668 2.6836,-3.874 2.6836,-6.615z" fill="#4285F4"/>
        <path d="M12,21c2.43,0 4.4673,-0.8068 5.9564,-2.1805l-2.9087,-2.2581c-0.8059,0.54 -1.8368,0.8591 -3.0477,0.8591 -2.344,0 -4.3282,-1.5831 -5.036,-3.7104H3.9574v2.3318C5.4382,18.9832 8.4818,21 12,21z" fill="#34A853"/>
        <path d="M6.964,13.71c-0.18,-0.54 -0.2827,-1.1168 -0.2827,-1.71s0.1027,-1.17 0.2827,-1.71V7.9582H3.9573C3.3482,9.1718 3,10.5477 3,12s0.3482,2.8282 0.9573,4.0418L6.964,13.71z" fill="#FBBC04"/>
        <path d="M12,6.5795c1.3214,0 2.5077,0.4541 3.4405,1.346l2.5813,-2.5814C16.4632,3.8918 14.426,3 12,3 8.4818,3 5.4382,5.0168 3.9573,7.9582L6.964,10.29C7.6718,8.1627 9.656,6.5795 12,6.5795z" fill="#EA4335"/>
    </g>
</svg>
